<?xml version="1.0" encoding="utf-8"?>
<!-- Generator: Adobe Illustrator 23.0.0, SVG Export Plug-In . SVG Version: 6.00 Build 0)  -->
<svg version="1.1" xmlns="http://www.w3.org/2000/svg" xmlns:xlink="http://www.w3.org/1999/xlink" x="0px" y="0px" width="1920px"
	 height="1080px" viewBox="0 0 1920 1080" style="enable-background:new 0 0 1920 1080;" xml:space="preserve">
<style type="text/css">
	.st0{fill:#22242A;}
	.st1{fill:#2D3136;}
	.st2{fill:#E9F5F5;}
	.st3{fill:#18191F;}
	.st4{fill:#FFDD80;}
	.st5{fill:#7AC8F2;}
	.st6{fill-rule:evenodd;clip-rule:evenodd;fill:#E9F5F5;}
	.st7{fill:#101015;}
	.st8{fill:#FF5F55;}
	.st9{fill:#FFBE32;}
	.st10{fill:#28CB40;}
</style>
<g id="Window">
	<path class="st0" d="M1895,1080H25c-13.81,0-25-11.19-25-25V25C0,11.19,11.19,0,25,0h1870c13.81,0,25,11.19,25,25v1030
		C1920,1068.81,1908.81,1080,1895,1080z"/>
</g>
<g id="Text_input">
	<path class="st1" d="M1569,1065H349c-8.28,0-15-6.72-15-15v-51c0-8.28,6.72-15,15-15h1220c8.28,0,15,6.72,15,15v51
		C1584,1058.28,1577.28,1065,1569,1065z"/>
	<g>
		<path class="st2" d="M373.17,1026.15c-0.11-2.07-0.24-4.55-0.22-6.4h-0.07c-0.51,1.74-1.12,3.59-1.87,5.63l-2.62,7.2h-1.45
			l-2.4-7.06c-0.7-2.09-1.3-4-1.72-5.76h-0.04c-0.04,1.85-0.15,4.33-0.29,6.56l-0.4,6.36h-1.83l1.03-14.83h2.44l2.53,7.17
			c0.62,1.83,1.12,3.46,1.5,5h0.07c0.37-1.5,0.9-3.13,1.56-5l2.64-7.17h2.44l0.92,14.83h-1.87L373.17,1026.15z"/>
		<path class="st2" d="M379.5,1027.69c0.04,2.62,1.72,3.7,3.65,3.7c1.39,0,2.22-0.24,2.95-0.55l0.33,1.39
			c-0.68,0.31-1.85,0.66-3.54,0.66c-3.28,0-5.24-2.16-5.24-5.37c0-3.21,1.89-5.74,5-5.74c3.48,0,4.4,3.06,4.4,5.02
			c0,0.4-0.04,0.7-0.07,0.9H379.5z M385.18,1026.3c0.02-1.23-0.51-3.15-2.68-3.15c-1.96,0-2.82,1.8-2.97,3.15H385.18z"/>
		<path class="st2" d="M389.18,1030.68c0.57,0.37,1.58,0.77,2.55,0.77c1.41,0,2.07-0.7,2.07-1.58c0-0.92-0.55-1.43-1.98-1.96
			c-1.91-0.68-2.82-1.74-2.82-3.01c0-1.72,1.39-3.12,3.67-3.12c1.08,0,2.02,0.31,2.62,0.66l-0.48,1.41
			c-0.42-0.26-1.19-0.62-2.18-0.62c-1.14,0-1.78,0.66-1.78,1.45c0,0.88,0.64,1.28,2.02,1.8c1.85,0.7,2.79,1.63,2.79,3.21
			c0,1.87-1.45,3.19-3.98,3.19c-1.17,0-2.24-0.29-2.99-0.73L389.18,1030.68z"/>
		<path class="st2" d="M397.9,1030.68c0.57,0.37,1.58,0.77,2.55,0.77c1.41,0,2.07-0.7,2.07-1.58c0-0.92-0.55-1.43-1.98-1.96
			c-1.91-0.68-2.82-1.74-2.82-3.01c0-1.72,1.39-3.12,3.67-3.12c1.08,0,2.02,0.31,2.62,0.66l-0.48,1.41
			c-0.42-0.26-1.19-0.62-2.18-0.62c-1.14,0-1.78,0.66-1.78,1.45c0,0.88,0.64,1.28,2.02,1.8c1.85,0.7,2.79,1.63,2.79,3.21
			c0,1.87-1.45,3.19-3.98,3.19c-1.17,0-2.24-0.29-2.99-0.73L397.9,1030.68z"/>
		<path class="st2" d="M412.77,1032.66l-0.15-1.34h-0.07c-0.59,0.84-1.74,1.58-3.26,1.58c-2.16,0-3.26-1.52-3.26-3.06
			c0-2.57,2.29-3.98,6.4-3.96v-0.22c0-0.88-0.24-2.46-2.42-2.46c-0.99,0-2.02,0.31-2.77,0.79l-0.44-1.28
			c0.88-0.57,2.16-0.95,3.5-0.95c3.26,0,4.05,2.22,4.05,4.36v3.98c0,0.92,0.04,1.83,0.18,2.55H412.77z M412.48,1027.23
			c-2.11-0.04-4.51,0.33-4.51,2.4c0,1.25,0.84,1.85,1.83,1.85c1.39,0,2.27-0.88,2.57-1.78c0.07-0.2,0.11-0.42,0.11-0.62V1027.23z"/>
		<path class="st2" d="M426.65,1022.01c-0.04,0.77-0.09,1.63-0.09,2.93v6.18c0,2.44-0.48,3.94-1.52,4.86
			c-1.03,0.97-2.53,1.28-3.87,1.28c-1.28,0-2.68-0.31-3.54-0.88l0.48-1.47c0.7,0.44,1.8,0.84,3.12,0.84c1.98,0,3.43-1.03,3.43-3.72
			v-1.19h-0.04c-0.59,0.99-1.74,1.78-3.39,1.78c-2.64,0-4.53-2.24-4.53-5.19c0-3.61,2.35-5.66,4.8-5.66c1.85,0,2.86,0.97,3.32,1.85
			h0.04l0.09-1.61H426.65z M424.65,1026.21c0-0.33-0.02-0.62-0.11-0.88c-0.35-1.12-1.3-2.05-2.71-2.05c-1.85,0-3.17,1.56-3.17,4.03
			c0,2.09,1.06,3.83,3.15,3.83c1.19,0,2.27-0.75,2.68-1.98c0.11-0.33,0.15-0.7,0.15-1.03V1026.21z"/>
		<path class="st2" d="M430.85,1027.69c0.04,2.62,1.72,3.7,3.65,3.7c1.39,0,2.22-0.24,2.95-0.55l0.33,1.39
			c-0.68,0.31-1.85,0.66-3.54,0.66c-3.28,0-5.24-2.16-5.24-5.37c0-3.21,1.89-5.74,5-5.74c3.48,0,4.4,3.06,4.4,5.02
			c0,0.4-0.04,0.7-0.07,0.9H430.85z M436.53,1026.3c0.02-1.23-0.51-3.15-2.68-3.15c-1.96,0-2.82,1.8-2.97,3.15H436.53z"/>
		<path class="st2" d="M445.9,1032.66l0.57-4.31h-1.8v-1.3h2l0.42-3.19h-1.89v-1.3h2.09l0.57-4.2h1.28l-0.55,4.2h2.29l0.57-4.2h1.3
			l-0.55,4.2h1.8v1.3h-2l-0.4,3.19h1.89v1.3h-2.09l-0.57,4.31h-1.32l0.57-4.31h-2.29l-0.57,4.31H445.9z M450.28,1027.05l0.42-3.19
			h-2.29l-0.42,3.19H450.28z"/>
		<path class="st2" d="M463.98,1032.26c-0.51,0.26-1.63,0.62-3.06,0.62c-3.21,0-5.3-2.18-5.3-5.43c0-3.28,2.24-5.65,5.72-5.65
			c1.14,0,2.16,0.29,2.68,0.55l-0.44,1.5c-0.46-0.26-1.19-0.51-2.24-0.51c-2.44,0-3.76,1.8-3.76,4.03c0,2.46,1.58,3.98,3.7,3.98
			c1.1,0,1.83-0.29,2.38-0.53L463.98,1032.26z"/>
		<path class="st2" d="M466.25,1017.04h1.94v6.64h0.04c0.31-0.55,0.79-1.03,1.39-1.36c0.57-0.33,1.25-0.55,1.98-0.55
			c1.43,0,3.72,0.88,3.72,4.55v6.34h-1.94v-6.12c0-1.72-0.64-3.17-2.46-3.17c-1.25,0-2.24,0.88-2.6,1.94
			c-0.11,0.26-0.13,0.55-0.13,0.92v6.42h-1.94V1017.04z"/>
		<path class="st2" d="M484.35,1032.66l-0.15-1.34h-0.07c-0.59,0.84-1.74,1.58-3.26,1.58c-2.16,0-3.26-1.52-3.26-3.06
			c0-2.57,2.29-3.98,6.4-3.96v-0.22c0-0.88-0.24-2.46-2.42-2.46c-0.99,0-2.02,0.31-2.77,0.79l-0.44-1.28
			c0.88-0.57,2.16-0.95,3.5-0.95c3.26,0,4.05,2.22,4.05,4.36v3.98c0,0.92,0.04,1.83,0.18,2.55H484.35z M484.07,1027.23
			c-2.11-0.04-4.51,0.33-4.51,2.4c0,1.25,0.84,1.85,1.83,1.85c1.39,0,2.27-0.88,2.57-1.78c0.07-0.2,0.11-0.42,0.11-0.62V1027.23z"/>
		<path class="st2" d="M491.31,1018.95v3.06h2.77v1.47h-2.77v5.74c0,1.32,0.37,2.07,1.45,2.07c0.51,0,0.88-0.07,1.12-0.13l0.09,1.45
			c-0.37,0.15-0.97,0.26-1.72,0.26c-0.9,0-1.63-0.29-2.09-0.81c-0.55-0.57-0.75-1.52-0.75-2.77v-5.81h-1.65v-1.47h1.65v-2.55
			L491.31,1018.95z"/>
	</g>
</g>
<g id="Member_list">
	<path class="st3" d="M1895,1080h-200c-13.81,0-25-11.19-25-25V101c0-13.81,11.19-25,25-25h225v979
		C1920,1068.81,1908.81,1080,1895,1080z"/>
	<g id="Members">
		<g id="Marian">
			<g id="Profile_Picture">
				<g>
					<defs>
						<circle id="Mask_1_" cx="1719.5" cy="225.5" r="25"/>
					</defs>
					<clipPath id="Mask_3_">
						<use xlink:href="#Mask_1_"  style="overflow:visible;"/>
					</clipPath>
				</g>
			</g>
			<g id="Name_1_">
				<g>
					<path class="st4" d="M1761.53,231.95c-0.15,0-0.27-0.05-0.36-0.14c-0.09-0.1-0.14-0.22-0.14-0.36v-14.37
						c0-0.16,0.05-0.29,0.14-0.38c0.1-0.1,0.22-0.14,0.36-0.14h1.1c0.18,0,0.31,0.04,0.4,0.13s0.15,0.16,0.18,0.22l4.64,8.89
						l4.69-8.89c0.03-0.06,0.08-0.13,0.17-0.22c0.08-0.09,0.21-0.13,0.38-0.13h1.08c0.16,0,0.29,0.05,0.38,0.14
						c0.1,0.1,0.14,0.22,0.14,0.38v14.37c0,0.15-0.05,0.27-0.14,0.36c-0.09,0.1-0.22,0.14-0.38,0.14h-1.08
						c-0.15,0-0.27-0.05-0.36-0.14c-0.1-0.1-0.14-0.22-0.14-0.36v-10.82l-3.67,7.17c-0.06,0.15-0.15,0.26-0.26,0.34
						c-0.12,0.08-0.26,0.12-0.44,0.12h-0.68c-0.19,0-0.34-0.04-0.44-0.12s-0.19-0.19-0.26-0.34l-3.7-7.17v10.82
						c0,0.15-0.05,0.27-0.14,0.36c-0.1,0.1-0.22,0.14-0.36,0.14H1761.53z"/>
					<path class="st4" d="M1781.4,232.17c-0.73,0-1.4-0.15-2-0.44c-0.6-0.29-1.09-0.69-1.45-1.19c-0.37-0.5-0.55-1.06-0.55-1.69
						c0-1.01,0.41-1.82,1.23-2.42c0.82-0.6,1.89-1,3.21-1.19l3.28-0.46v-0.64c0-0.7-0.2-1.25-0.61-1.65s-1.06-0.59-1.97-0.59
						c-0.65,0-1.17,0.13-1.58,0.4c-0.41,0.26-0.7,0.6-0.86,1.01c-0.09,0.22-0.24,0.33-0.46,0.33h-0.99c-0.16,0-0.28-0.05-0.36-0.14
						c-0.08-0.1-0.12-0.21-0.12-0.34c0-0.22,0.08-0.49,0.25-0.81s0.43-0.64,0.78-0.95c0.35-0.31,0.8-0.57,1.35-0.78
						c0.55-0.21,1.22-0.32,2.01-0.32c0.88,0,1.62,0.11,2.22,0.34s1.07,0.53,1.42,0.91s0.59,0.81,0.75,1.3s0.23,0.98,0.23,1.47v7.13
						c0,0.15-0.05,0.27-0.14,0.36c-0.1,0.1-0.22,0.14-0.36,0.14h-1.01c-0.16,0-0.29-0.05-0.37-0.14c-0.09-0.1-0.13-0.22-0.13-0.36
						v-0.95c-0.19,0.26-0.45,0.52-0.77,0.78c-0.32,0.26-0.73,0.47-1.21,0.64C1782.7,232.08,1782.1,232.17,1781.4,232.17z
						 M1781.86,230.52c0.6,0,1.15-0.13,1.65-0.38c0.5-0.26,0.89-0.66,1.18-1.2c0.29-0.54,0.43-1.22,0.43-2.05v-0.62l-2.55,0.37
						c-1.04,0.15-1.83,0.39-2.35,0.74s-0.79,0.78-0.79,1.31c0,0.41,0.12,0.75,0.36,1.02s0.55,0.47,0.92,0.6
						S1781.47,230.52,1781.86,230.52z"/>
					<path class="st4" d="M1790.86,231.95c-0.15,0-0.27-0.05-0.36-0.14c-0.1-0.1-0.14-0.22-0.14-0.36v-10.41
						c0-0.15,0.05-0.27,0.14-0.37c0.09-0.1,0.22-0.15,0.36-0.15h1.01c0.15,0,0.27,0.05,0.37,0.15c0.1,0.1,0.15,0.23,0.15,0.37V222
						c0.29-0.5,0.7-0.87,1.21-1.12s1.14-0.37,1.87-0.37h0.86c0.15,0,0.27,0.05,0.36,0.14c0.1,0.1,0.14,0.22,0.14,0.36v0.9
						c0,0.15-0.05,0.26-0.14,0.35c-0.09,0.09-0.22,0.13-0.36,0.13h-1.32c-0.79,0-1.42,0.23-1.87,0.69
						c-0.46,0.46-0.68,1.09-0.68,1.88v6.47c0,0.15-0.05,0.27-0.15,0.36c-0.1,0.1-0.23,0.14-0.37,0.14H1790.86z"/>
					<path class="st4" d="M1799.04,218.37c-0.15,0-0.27-0.05-0.36-0.14s-0.14-0.22-0.14-0.36v-1.19c0-0.15,0.05-0.27,0.14-0.37
						c0.1-0.1,0.22-0.15,0.36-0.15h1.39c0.15,0,0.27,0.05,0.37,0.15c0.1,0.1,0.15,0.23,0.15,0.37v1.19c0,0.15-0.05,0.27-0.15,0.36
						s-0.23,0.14-0.37,0.14H1799.04z M1799.22,231.95c-0.15,0-0.27-0.05-0.36-0.14c-0.1-0.1-0.14-0.22-0.14-0.36v-10.43
						c0-0.15,0.05-0.27,0.14-0.36c0.09-0.1,0.22-0.14,0.36-0.14h1.06c0.15,0,0.27,0.05,0.36,0.14s0.14,0.22,0.14,0.36v10.43
						c0,0.15-0.05,0.27-0.14,0.36c-0.1,0.1-0.22,0.14-0.36,0.14H1799.22z"/>
					<path class="st4" d="M1807.23,232.17c-0.73,0-1.4-0.15-2-0.44c-0.6-0.29-1.09-0.69-1.45-1.19c-0.37-0.5-0.55-1.06-0.55-1.69
						c0-1.01,0.41-1.82,1.23-2.42c0.82-0.6,1.89-1,3.21-1.19l3.28-0.46v-0.64c0-0.7-0.2-1.25-0.61-1.65s-1.06-0.59-1.97-0.59
						c-0.65,0-1.17,0.13-1.58,0.4c-0.41,0.26-0.7,0.6-0.86,1.01c-0.09,0.22-0.24,0.33-0.46,0.33h-0.99c-0.16,0-0.28-0.05-0.36-0.14
						c-0.08-0.1-0.12-0.21-0.12-0.34c0-0.22,0.08-0.49,0.25-0.81s0.43-0.64,0.78-0.95c0.35-0.31,0.8-0.57,1.35-0.78
						c0.55-0.21,1.22-0.32,2.01-0.32c0.88,0,1.62,0.11,2.22,0.34s1.07,0.53,1.42,0.91s0.59,0.81,0.75,1.3s0.23,0.98,0.23,1.47v7.13
						c0,0.15-0.05,0.27-0.14,0.36c-0.1,0.1-0.22,0.14-0.36,0.14h-1.01c-0.16,0-0.29-0.05-0.37-0.14c-0.09-0.1-0.13-0.22-0.13-0.36
						v-0.95c-0.19,0.26-0.45,0.52-0.77,0.78c-0.32,0.26-0.73,0.47-1.21,0.64C1808.53,232.08,1807.93,232.17,1807.23,232.17z
						 M1807.69,230.52c0.6,0,1.15-0.13,1.65-0.38c0.5-0.26,0.89-0.66,1.18-1.2c0.29-0.54,0.43-1.22,0.43-2.05v-0.62l-2.55,0.37
						c-1.04,0.15-1.83,0.39-2.35,0.74s-0.79,0.78-0.79,1.31c0,0.41,0.12,0.75,0.36,1.02s0.55,0.47,0.92,0.6
						S1807.29,230.52,1807.69,230.52z"/>
					<path class="st4" d="M1816.69,231.95c-0.15,0-0.27-0.05-0.36-0.14c-0.1-0.1-0.14-0.22-0.14-0.36v-10.43
						c0-0.15,0.05-0.27,0.14-0.36c0.09-0.1,0.22-0.14,0.36-0.14h1.03c0.15,0,0.27,0.05,0.36,0.14c0.09,0.1,0.14,0.22,0.14,0.36v0.97
						c0.38-0.5,0.86-0.91,1.44-1.22c0.58-0.32,1.32-0.47,2.23-0.47c0.95,0,1.76,0.21,2.43,0.63c0.67,0.42,1.17,1,1.52,1.74
						s0.52,1.6,0.52,2.58v6.2c0,0.15-0.05,0.27-0.14,0.36c-0.1,0.1-0.22,0.14-0.36,0.14h-1.1c-0.15,0-0.27-0.05-0.36-0.14
						c-0.1-0.1-0.14-0.22-0.14-0.36v-6.09c0-1.03-0.25-1.83-0.75-2.41c-0.5-0.58-1.23-0.87-2.2-0.87c-0.91,0-1.64,0.29-2.19,0.87
						c-0.55,0.58-0.83,1.38-0.83,2.41v6.09c0,0.15-0.05,0.27-0.14,0.36c-0.1,0.1-0.22,0.14-0.36,0.14H1816.69z"/>
				</g>
			</g>
		</g>
		<g id="Myra">
			<g id="Profile_Picture_1_">
				<g>
					<defs>
						<circle id="Mask" cx="1720" cy="151" r="25"/>
					</defs>
					<clipPath id="Mask_4_">
						<use xlink:href="#Mask"  style="overflow:visible;"/>
					</clipPath>
				</g>
			</g>
			<g id="Name">
				<g>
					<path class="st5" d="M1762.45,157.45c-0.15,0-0.27-0.05-0.36-0.14c-0.09-0.1-0.14-0.22-0.14-0.36v-14.37
						c0-0.16,0.05-0.29,0.14-0.38c0.1-0.1,0.22-0.14,0.36-0.14h1.1c0.18,0,0.31,0.04,0.4,0.13s0.15,0.16,0.18,0.22l4.64,8.89
						l4.69-8.89c0.03-0.06,0.08-0.13,0.17-0.22c0.08-0.09,0.21-0.13,0.38-0.13h1.08c0.16,0,0.29,0.05,0.38,0.14
						c0.1,0.1,0.14,0.22,0.14,0.38v14.37c0,0.15-0.05,0.27-0.14,0.36c-0.09,0.1-0.22,0.14-0.38,0.14H1774
						c-0.15,0-0.27-0.05-0.36-0.14c-0.1-0.1-0.14-0.22-0.14-0.36v-10.82l-3.67,7.17c-0.06,0.15-0.15,0.26-0.26,0.34
						c-0.12,0.08-0.26,0.12-0.44,0.12h-0.68c-0.19,0-0.34-0.04-0.44-0.12s-0.19-0.19-0.26-0.34l-3.7-7.17v10.82
						c0,0.15-0.05,0.27-0.14,0.36c-0.1,0.1-0.22,0.14-0.36,0.14H1762.45z"/>
					<path class="st5" d="M1781.13,161.63c-0.12,0-0.22-0.04-0.31-0.13c-0.09-0.09-0.13-0.19-0.13-0.31c0-0.06,0.01-0.12,0.02-0.18
						s0.04-0.13,0.09-0.22l1.69-4.03l-4.2-9.92c-0.07-0.18-0.11-0.3-0.11-0.37c0-0.13,0.04-0.24,0.13-0.33
						c0.09-0.09,0.2-0.13,0.33-0.13h1.08c0.16,0,0.28,0.04,0.35,0.11c0.07,0.07,0.13,0.16,0.18,0.26l3.34,8.01l3.43-8.01
						c0.04-0.1,0.11-0.19,0.19-0.26c0.08-0.07,0.2-0.11,0.36-0.11h1.03c0.13,0,0.24,0.04,0.33,0.13c0.09,0.09,0.13,0.19,0.13,0.31
						c0,0.07-0.04,0.21-0.11,0.4l-6.25,14.41c-0.04,0.1-0.11,0.19-0.19,0.26c-0.08,0.07-0.2,0.11-0.36,0.11H1781.13z"/>
					<path class="st5" d="M1791.78,157.45c-0.15,0-0.27-0.05-0.36-0.14c-0.1-0.1-0.14-0.22-0.14-0.36v-10.41
						c0-0.15,0.05-0.27,0.14-0.37c0.09-0.1,0.22-0.15,0.36-0.15h1.01c0.15,0,0.27,0.05,0.37,0.15c0.1,0.1,0.15,0.23,0.15,0.37v0.97
						c0.29-0.5,0.7-0.87,1.21-1.12s1.14-0.37,1.87-0.37h0.86c0.15,0,0.27,0.05,0.36,0.14c0.1,0.1,0.14,0.22,0.14,0.36v0.9
						c0,0.15-0.05,0.26-0.14,0.35c-0.09,0.09-0.22,0.13-0.36,0.13h-1.32c-0.79,0-1.42,0.23-1.87,0.69
						c-0.46,0.46-0.68,1.09-0.68,1.88v6.47c0,0.15-0.05,0.27-0.15,0.36c-0.1,0.1-0.23,0.14-0.37,0.14H1791.78z"/>
					<path class="st5" d="M1802.64,157.67c-0.73,0-1.4-0.15-2-0.44c-0.6-0.29-1.09-0.69-1.45-1.19c-0.37-0.5-0.55-1.06-0.55-1.69
						c0-1.01,0.41-1.82,1.23-2.42c0.82-0.6,1.89-1,3.21-1.19l3.28-0.46v-0.64c0-0.7-0.2-1.25-0.61-1.65s-1.06-0.59-1.97-0.59
						c-0.65,0-1.17,0.13-1.58,0.4c-0.41,0.26-0.7,0.6-0.86,1.01c-0.09,0.22-0.24,0.33-0.46,0.33h-0.99c-0.16,0-0.28-0.05-0.36-0.14
						c-0.08-0.1-0.12-0.21-0.12-0.34c0-0.22,0.08-0.49,0.25-0.81s0.43-0.64,0.78-0.95c0.35-0.31,0.8-0.57,1.35-0.78
						c0.55-0.21,1.22-0.32,2.01-0.32c0.88,0,1.62,0.11,2.22,0.34s1.07,0.53,1.42,0.91s0.59,0.81,0.75,1.3s0.23,0.98,0.23,1.47v7.13
						c0,0.15-0.05,0.27-0.14,0.36c-0.1,0.1-0.22,0.14-0.36,0.14h-1.01c-0.16,0-0.29-0.05-0.37-0.14c-0.09-0.1-0.13-0.22-0.13-0.36
						v-0.95c-0.19,0.26-0.45,0.52-0.77,0.78c-0.32,0.26-0.73,0.47-1.21,0.64C1803.94,157.58,1803.35,157.67,1802.64,157.67z
						 M1803.11,156.02c0.6,0,1.15-0.13,1.65-0.38c0.5-0.26,0.89-0.66,1.18-1.2c0.29-0.54,0.43-1.22,0.43-2.05v-0.62l-2.55,0.37
						c-1.04,0.15-1.83,0.39-2.35,0.74s-0.79,0.78-0.79,1.31c0,0.41,0.12,0.75,0.36,1.02s0.55,0.47,0.92,0.6
						S1802.71,156.02,1803.11,156.02z"/>
				</g>
			</g>
		</g>
	</g>
	<g id="Roles">
		<g>
			<path class="st2" d="M1703.21,113.23c-0.48,0.24-1.44,0.48-2.67,0.48c-2.85,0-5-1.8-5-5.11c0-3.17,2.14-5.31,5.28-5.31
				c1.26,0,2.06,0.27,2.4,0.45l-0.32,1.06c-0.49-0.24-1.2-0.42-2.04-0.42c-2.37,0-3.95,1.52-3.95,4.17c0,2.48,1.42,4.06,3.88,4.06
				c0.79,0,1.61-0.17,2.13-0.42L1703.21,113.23z"/>
			<path class="st2" d="M1711.2,109.87c0,2.69-1.86,3.85-3.62,3.85c-1.96,0-3.48-1.44-3.48-3.73c0-2.43,1.59-3.85,3.6-3.85
				C1709.79,106.13,1711.2,107.65,1711.2,109.87z M1705.44,109.94c0,1.59,0.92,2.79,2.2,2.79c1.26,0,2.21-1.18,2.21-2.82
				c0-1.23-0.61-2.79-2.17-2.79C1706.12,107.12,1705.44,108.56,1705.44,109.94z"/>
			<path class="st2" d="M1719.43,109.87c0,2.69-1.86,3.85-3.62,3.85c-1.96,0-3.48-1.44-3.48-3.73c0-2.43,1.59-3.85,3.6-3.85
				C1718.02,106.13,1719.43,107.65,1719.43,109.87z M1713.67,109.94c0,1.59,0.92,2.79,2.2,2.79c1.26,0,2.21-1.18,2.21-2.82
				c0-1.23-0.61-2.79-2.17-2.79C1714.35,107.12,1713.67,108.56,1713.67,109.94z"/>
			<path class="st2" d="M1721.1,102.91h1.32v10.65h-1.32V102.91z"/>
			<path class="st2" d="M1727.82,108.67c0-0.93-0.03-1.68-0.06-2.37h1.18l0.06,1.25h0.03c0.54-0.89,1.4-1.41,2.58-1.41
				c1.75,0,3.08,1.48,3.08,3.69c0,2.61-1.59,3.9-3.3,3.9c-0.96,0-1.8-0.42-2.24-1.14h-0.03v3.94h-1.31V108.67z M1729.13,110.6
				c0,0.2,0.03,0.38,0.06,0.54c0.24,0.92,1.04,1.54,1.98,1.54c1.4,0,2.21-1.14,2.21-2.8c0-1.46-0.76-2.7-2.16-2.7
				c-0.9,0-1.74,0.64-1.99,1.63c-0.04,0.17-0.09,0.36-0.09,0.54V110.6z"/>
			<path class="st2" d="M1737.09,110.17c0.03,1.78,1.17,2.52,2.49,2.52c0.94,0,1.51-0.17,2.01-0.38l0.22,0.95
				c-0.46,0.21-1.26,0.45-2.42,0.45c-2.23,0-3.57-1.47-3.57-3.66s1.29-3.92,3.4-3.92c2.37,0,3,2.08,3,3.42
				c0,0.27-0.03,0.48-0.04,0.62H1737.09z M1740.96,109.22c0.01-0.84-0.35-2.14-1.83-2.14c-1.33,0-1.92,1.23-2.03,2.14H1740.96z"/>
			<path class="st2" d="M1750.44,109.87c0,2.69-1.86,3.85-3.62,3.85c-1.96,0-3.48-1.44-3.48-3.73c0-2.43,1.59-3.85,3.6-3.85
				C1749.03,106.13,1750.44,107.65,1750.44,109.87z M1744.68,109.94c0,1.59,0.92,2.79,2.2,2.79c1.26,0,2.21-1.18,2.21-2.82
				c0-1.23-0.61-2.79-2.17-2.79C1745.35,107.12,1744.68,108.56,1744.68,109.94z"/>
			<path class="st2" d="M1752.1,108.67c0-0.93-0.03-1.68-0.06-2.37h1.18l0.06,1.25h0.03c0.54-0.89,1.4-1.41,2.58-1.41
				c1.75,0,3.08,1.48,3.08,3.69c0,2.61-1.59,3.9-3.3,3.9c-0.96,0-1.8-0.42-2.24-1.14h-0.03v3.94h-1.3V108.67z M1753.41,110.6
				c0,0.2,0.03,0.38,0.06,0.54c0.24,0.92,1.04,1.54,1.98,1.54c1.4,0,2.21-1.14,2.21-2.8c0-1.46-0.76-2.7-2.16-2.7
				c-0.9,0-1.74,0.64-1.99,1.63c-0.04,0.17-0.09,0.36-0.09,0.54V110.6z"/>
			<path class="st2" d="M1760.64,102.91h1.32v10.65h-1.32V102.91z"/>
			<path class="st2" d="M1764.91,110.17c0.03,1.78,1.17,2.52,2.49,2.52c0.94,0,1.51-0.17,2.01-0.38l0.22,0.95
				c-0.46,0.21-1.26,0.45-2.42,0.45c-2.23,0-3.57-1.47-3.57-3.66s1.29-3.92,3.4-3.92c2.37,0,3,2.08,3,3.42
				c0,0.27-0.03,0.48-0.04,0.62H1764.91z M1768.78,109.22c0.01-0.84-0.35-2.14-1.83-2.14c-1.33,0-1.92,1.23-2.03,2.14H1768.78z"/>
			<path class="st2" d="M1788.33,109.3v0.9h-14.1v-0.9H1788.33z"/>
			<path class="st2" d="M1792.63,113.56v-0.81l1.04-1c2.49-2.37,3.62-3.63,3.63-5.1c0-0.99-0.48-1.91-1.93-1.91
				c-0.89,0-1.62,0.45-2.07,0.83l-0.42-0.93c0.67-0.57,1.63-0.99,2.76-0.99c2.1,0,2.99,1.44,2.99,2.83c0,1.8-1.31,3.25-3.36,5.23
				l-0.78,0.72v0.03h4.38v1.09H1792.63z"/>
		</g>
	</g>
</g>
<g id="Chat">
	<g id="_x30_2">
		<g id="User_1_">
			<g id="Profile_Picture_Kopie_2">
				<g>
					<defs>
						<circle id="Mask_5_" cx="371" cy="896" r="37.5"/>
					</defs>
					<clipPath id="Mask_6_">
						<use xlink:href="#Mask_5_"  style="overflow:visible;"/>
					</clipPath>
				</g>
			</g>
			<g id="Name_2_">
				<g>
					<path class="st5" d="M426.58,882.3c-0.19,0-0.34-0.06-0.46-0.18c-0.12-0.12-0.18-0.27-0.18-0.46v-18.28
						c0-0.21,0.06-0.37,0.18-0.49c0.12-0.12,0.28-0.18,0.46-0.18h1.4c0.22,0,0.39,0.06,0.5,0.17c0.11,0.11,0.19,0.21,0.22,0.28
						l5.91,11.31l5.96-11.31c0.04-0.07,0.11-0.17,0.21-0.28c0.1-0.11,0.27-0.17,0.49-0.17h1.37c0.21,0,0.37,0.06,0.49,0.18
						c0.12,0.12,0.18,0.28,0.18,0.49v18.28c0,0.19-0.06,0.34-0.18,0.46c-0.12,0.12-0.28,0.18-0.49,0.18h-1.37
						c-0.19,0-0.34-0.06-0.46-0.18c-0.12-0.12-0.18-0.27-0.18-0.46v-13.78l-4.68,9.13c-0.08,0.19-0.19,0.33-0.34,0.43
						s-0.34,0.15-0.56,0.15h-0.87c-0.24,0-0.43-0.05-0.56-0.15s-0.24-0.25-0.34-0.43l-4.7-9.13v13.78c0,0.19-0.06,0.34-0.18,0.46
						c-0.12,0.12-0.28,0.18-0.46,0.18H426.58z"/>
					<path class="st5" d="M450.35,887.62c-0.15,0-0.28-0.06-0.39-0.17c-0.11-0.11-0.17-0.24-0.17-0.39c0-0.08,0.01-0.15,0.03-0.22
						c0.02-0.08,0.06-0.17,0.11-0.28l2.16-5.12l-5.35-12.63c-0.09-0.22-0.14-0.38-0.14-0.48c0-0.17,0.06-0.31,0.17-0.42
						c0.11-0.11,0.25-0.17,0.42-0.17h1.37c0.21,0,0.35,0.05,0.45,0.14c0.09,0.09,0.17,0.21,0.22,0.34l4.26,10.19l4.37-10.19
						c0.06-0.13,0.13-0.24,0.24-0.34c0.1-0.09,0.26-0.14,0.46-0.14h1.32c0.17,0,0.31,0.06,0.42,0.17c0.11,0.11,0.17,0.24,0.17,0.39
						c0,0.09-0.05,0.26-0.14,0.5l-7.95,18.34c-0.06,0.13-0.14,0.24-0.24,0.34c-0.1,0.09-0.26,0.14-0.46,0.14H450.35z"/>
					<path class="st5" d="M463.9,882.3c-0.19,0-0.34-0.06-0.46-0.18c-0.12-0.12-0.18-0.27-0.18-0.46v-13.24
						c0-0.19,0.06-0.34,0.18-0.48c0.12-0.13,0.28-0.2,0.46-0.2h1.29c0.19,0,0.35,0.07,0.48,0.2c0.13,0.13,0.2,0.29,0.2,0.48v1.23
						c0.37-0.63,0.89-1.11,1.54-1.43s1.45-0.48,2.38-0.48h1.09c0.19,0,0.34,0.06,0.46,0.18c0.12,0.12,0.18,0.28,0.18,0.46v1.15
						c0,0.19-0.06,0.34-0.18,0.45c-0.12,0.11-0.28,0.17-0.46,0.17h-1.68c-1.01,0-1.8,0.29-2.38,0.88c-0.58,0.59-0.87,1.39-0.87,2.39
						v8.23c0,0.19-0.07,0.34-0.2,0.46c-0.13,0.12-0.29,0.18-0.48,0.18H463.9z"/>
					<path class="st5" d="M477.73,882.58c-0.93,0-1.78-0.19-2.55-0.56s-1.38-0.88-1.85-1.51c-0.47-0.63-0.7-1.35-0.7-2.16
						c0-1.29,0.52-2.31,1.57-3.08c1.05-0.76,2.41-1.27,4.09-1.51l4.17-0.59v-0.81c0-0.9-0.26-1.6-0.77-2.1s-1.35-0.76-2.51-0.76
						c-0.82,0-1.49,0.17-2.02,0.5c-0.52,0.34-0.89,0.77-1.09,1.29c-0.11,0.28-0.31,0.42-0.59,0.42h-1.26
						c-0.21,0-0.36-0.06-0.46-0.18c-0.1-0.12-0.15-0.27-0.15-0.43c0-0.28,0.11-0.63,0.32-1.04c0.21-0.41,0.55-0.81,0.99-1.2
						c0.45-0.39,1.02-0.72,1.72-0.99c0.7-0.27,1.55-0.41,2.56-0.41c1.12,0,2.06,0.14,2.83,0.43c0.76,0.29,1.37,0.68,1.81,1.16
						s0.76,1.04,0.95,1.65c0.2,0.62,0.29,1.24,0.29,1.88v9.07c0,0.19-0.06,0.34-0.18,0.46c-0.12,0.12-0.28,0.18-0.46,0.18h-1.29
						c-0.21,0-0.36-0.06-0.48-0.18c-0.11-0.12-0.17-0.27-0.17-0.46v-1.2c-0.24,0.34-0.57,0.67-0.98,0.99
						c-0.41,0.33-0.92,0.6-1.54,0.81C479.39,882.47,478.63,882.58,477.73,882.58z M478.32,880.48c0.77,0,1.47-0.16,2.1-0.49
						c0.63-0.33,1.13-0.83,1.5-1.53c0.36-0.69,0.55-1.56,0.55-2.6v-0.78l-3.25,0.48c-1.33,0.19-2.32,0.5-3,0.94
						c-0.67,0.44-1.01,0.99-1.01,1.67c0,0.52,0.15,0.96,0.46,1.3c0.31,0.34,0.7,0.6,1.18,0.77S477.82,880.48,478.32,880.48z"/>
				</g>
			</g>
		</g>
		<g id="Message_1_">
			<g>
				<path class="st2" d="M425.63,934v-18.87h2.66l6.05,9.55c1.4,2.21,2.49,4.2,3.39,6.13l0.06-0.03c-0.22-2.52-0.28-4.82-0.28-7.76
					v-7.9h2.3V934h-2.46l-5.99-9.58c-1.32-2.1-2.58-4.26-3.53-6.3l-0.08,0.03c0.14,2.38,0.2,4.65,0.2,7.78V934H425.63z"/>
				<path class="st2" d="M456.23,927.11c0,5.01-3.47,7.2-6.75,7.2c-3.67,0-6.5-2.69-6.5-6.97c0-4.54,2.97-7.2,6.72-7.2
					C453.6,920.14,456.23,922.97,456.23,927.11z M445.48,927.25c0,2.97,1.71,5.21,4.12,5.21c2.35,0,4.12-2.21,4.12-5.26
					c0-2.3-1.15-5.21-4.06-5.21S445.48,924.68,445.48,927.25z"/>
				<path class="st2" d="M466.25,920.45l1.79,6.89c0.39,1.51,0.76,2.91,1.01,4.31h0.08c0.31-1.37,0.76-2.83,1.2-4.28l2.21-6.92h2.07
					l2.1,6.78c0.5,1.62,0.9,3.05,1.2,4.42h0.08c0.22-1.37,0.59-2.8,1.04-4.4l1.93-6.8h2.44L479.05,934h-2.24l-2.07-6.47
					c-0.48-1.51-0.87-2.86-1.2-4.45h-0.06c-0.34,1.62-0.76,3.02-1.23,4.48l-2.18,6.44h-2.24l-4.09-13.55H466.25z"/>
				<path class="st2" d="M497.87,927.11c0,5.01-3.47,7.2-6.75,7.2c-3.67,0-6.5-2.69-6.5-6.97c0-4.54,2.97-7.2,6.72-7.2
					C495.23,920.14,497.87,922.97,497.87,927.11z M487.11,927.25c0,2.97,1.71,5.21,4.12,5.21c2.35,0,4.12-2.21,4.12-5.26
					c0-2.3-1.15-5.21-4.06-5.21S487.11,924.68,487.11,927.25z"/>
				<path class="st2" d="M500.97,924.68c0-1.6-0.03-2.97-0.11-4.23h2.16l0.08,2.66h0.11c0.62-1.82,2.1-2.97,3.75-2.97
					c0.28,0,0.48,0.03,0.7,0.08v2.32c-0.25-0.06-0.5-0.08-0.84-0.08c-1.74,0-2.97,1.32-3.3,3.16c-0.06,0.34-0.11,0.73-0.11,1.15V934
					h-2.44V924.68z"/>
				<path class="st2" d="M510.24,924.68c0-1.6-0.03-2.97-0.11-4.23h2.16l0.08,2.66h0.11c0.62-1.82,2.1-2.97,3.75-2.97
					c0.28,0,0.48,0.03,0.7,0.08v2.32c-0.25-0.06-0.5-0.08-0.84-0.08c-1.74,0-2.97,1.32-3.3,3.16c-0.06,0.34-0.11,0.73-0.11,1.15V934
					h-2.44V924.68z"/>
				<path class="st2" d="M522.25,916.64c0.03,0.84-0.59,1.51-1.57,1.51c-0.87,0-1.48-0.67-1.48-1.51c0-0.87,0.64-1.54,1.54-1.54
					C521.67,915.1,522.25,915.77,522.25,916.64z M519.51,934v-13.55h2.46V934H519.51z"/>
				<path class="st2" d="M527.43,927.67c0.06,3.33,2.18,4.7,4.65,4.7c1.76,0,2.83-0.31,3.75-0.7l0.42,1.76
					c-0.87,0.39-2.35,0.84-4.51,0.84c-4.17,0-6.66-2.74-6.66-6.83s2.41-7.31,6.36-7.31c4.42,0,5.6,3.89,5.6,6.38
					c0,0.5-0.06,0.9-0.08,1.15H527.43z M534.66,925.91c0.03-1.57-0.64-4-3.42-4c-2.49,0-3.58,2.3-3.78,4H534.66z"/>
				<path class="st2" d="M539.75,931.48c0.73,0.48,2.02,0.98,3.25,0.98c1.79,0,2.63-0.9,2.63-2.02c0-1.18-0.7-1.82-2.52-2.49
					c-2.44-0.87-3.58-2.21-3.58-3.84c0-2.18,1.76-3.98,4.68-3.98c1.37,0,2.58,0.39,3.33,0.84l-0.62,1.79
					c-0.53-0.34-1.51-0.78-2.77-0.78c-1.46,0-2.27,0.84-2.27,1.85c0,1.12,0.81,1.62,2.58,2.3c2.35,0.9,3.56,2.07,3.56,4.09
					c0,2.38-1.85,4.06-5.07,4.06c-1.48,0-2.86-0.36-3.81-0.92L539.75,931.48z"/>
				<path class="st2" d="M549.27,937.44c0.62-1.65,1.37-4.65,1.68-6.69l2.74-0.28c-0.64,2.38-1.88,5.49-2.66,6.8L549.27,937.44z"/>
				<path class="st2" d="M565.12,915.13V934h-2.44v-18.87H565.12z"/>
				<path class="st2" d="M574.89,931.48c0.73,0.48,2.02,0.98,3.25,0.98c1.79,0,2.63-0.9,2.63-2.02c0-1.18-0.7-1.82-2.52-2.49
					c-2.44-0.87-3.58-2.21-3.58-3.84c0-2.18,1.76-3.98,4.68-3.98c1.37,0,2.58,0.39,3.33,0.84l-0.62,1.79
					c-0.53-0.34-1.51-0.78-2.77-0.78c-1.46,0-2.27,0.84-2.27,1.85c0,1.12,0.81,1.62,2.58,2.3c2.35,0.9,3.56,2.07,3.56,4.09
					c0,2.38-1.85,4.06-5.07,4.06c-1.48,0-2.86-0.36-3.81-0.92L574.89,931.48z"/>
				<path class="st2" d="M587.3,920.45l1.79,6.89c0.39,1.51,0.76,2.91,1.01,4.31h0.08c0.31-1.37,0.76-2.83,1.2-4.28l2.21-6.92h2.07
					l2.1,6.78c0.5,1.62,0.9,3.05,1.2,4.42h0.08c0.22-1.37,0.59-2.8,1.04-4.4l1.93-6.8h2.44L600.09,934h-2.24l-2.07-6.47
					c-0.48-1.51-0.87-2.86-1.2-4.45h-0.06c-0.34,1.62-0.76,3.02-1.23,4.48L591.1,934h-2.24l-4.09-13.55H587.3z"/>
				<path class="st2" d="M614.32,934l-0.2-1.71h-0.08c-0.76,1.06-2.21,2.02-4.14,2.02c-2.74,0-4.14-1.93-4.14-3.89
					c0-3.28,2.91-5.07,8.15-5.04v-0.28c0-1.12-0.31-3.14-3.08-3.14c-1.26,0-2.58,0.39-3.53,1.01l-0.56-1.62
					c1.12-0.73,2.74-1.2,4.45-1.2c4.14,0,5.15,2.83,5.15,5.54v5.07c0,1.18,0.06,2.32,0.22,3.25H614.32z M613.95,927.08
					c-2.69-0.06-5.74,0.42-5.74,3.05c0,1.6,1.06,2.35,2.32,2.35c1.76,0,2.88-1.12,3.28-2.27c0.08-0.25,0.14-0.53,0.14-0.78V927.08z"
					/>
				<path class="st2" d="M620.31,924.12c0-1.4-0.03-2.55-0.11-3.67h2.18l0.14,2.24h0.06c0.67-1.29,2.24-2.55,4.48-2.55
					c1.88,0,4.79,1.12,4.79,5.77V934h-2.46v-7.81c0-2.18-0.81-4-3.14-4c-1.62,0-2.88,1.15-3.3,2.52c-0.11,0.31-0.17,0.73-0.17,1.15
					V934h-2.46V924.12z"/>
				<path class="st2" d="M647.52,920.45c-0.06,0.98-0.11,2.07-0.11,3.72v7.87c0,3.11-0.62,5.01-1.93,6.19
					c-1.32,1.23-3.22,1.62-4.93,1.62c-1.62,0-3.42-0.39-4.51-1.12l0.62-1.88c0.9,0.56,2.3,1.06,3.98,1.06
					c2.52,0,4.37-1.32,4.37-4.73v-1.51h-0.06c-0.76,1.26-2.21,2.27-4.31,2.27c-3.36,0-5.77-2.86-5.77-6.61c0-4.59,3-7.2,6.1-7.2
					c2.35,0,3.64,1.23,4.23,2.35h0.06l0.11-2.04H647.52z M644.98,925.8c0-0.42-0.03-0.78-0.14-1.12c-0.45-1.43-1.65-2.6-3.44-2.6
					c-2.35,0-4.03,1.99-4.03,5.12c0,2.66,1.34,4.87,4,4.87c1.51,0,2.88-0.95,3.42-2.52c0.14-0.42,0.2-0.9,0.2-1.32V925.8z"/>
				<path class="st2" d="M660.4,916.56v3.89h3.53v1.88h-3.53v7.31c0,1.68,0.48,2.63,1.85,2.63c0.64,0,1.12-0.08,1.43-0.17l0.11,1.85
					c-0.48,0.2-1.23,0.34-2.18,0.34c-1.15,0-2.07-0.36-2.66-1.04c-0.7-0.73-0.95-1.93-0.95-3.53v-7.39h-2.1v-1.88h2.1v-3.25
					L660.4,916.56z"/>
				<path class="st2" d="M666.7,914.12h2.46v8.46h0.06c0.39-0.7,1.01-1.32,1.76-1.74c0.73-0.42,1.6-0.7,2.52-0.7
					c1.82,0,4.73,1.12,4.73,5.8V934h-2.46v-7.78c0-2.18-0.81-4.03-3.14-4.03c-1.6,0-2.86,1.12-3.3,2.46
					c-0.14,0.34-0.17,0.7-0.17,1.18V934h-2.46V914.12z"/>
				<path class="st2" d="M683.62,927.67c0.06,3.33,2.18,4.7,4.65,4.7c1.76,0,2.83-0.31,3.75-0.7l0.42,1.76
					c-0.87,0.39-2.35,0.84-4.51,0.84c-4.17,0-6.66-2.74-6.66-6.83s2.41-7.31,6.36-7.31c4.42,0,5.6,3.89,5.6,6.38
					c0,0.5-0.06,0.9-0.08,1.15H683.62z M690.84,925.91c0.03-1.57-0.64-4-3.42-4c-2.49,0-3.58,2.3-3.78,4H690.84z"/>
				<path class="st2" d="M702.09,934c0.06-0.92,0.11-2.3,0.11-3.5v-16.38h2.44v8.51h0.06c0.87-1.51,2.44-2.49,4.62-2.49
					c3.36,0,5.74,2.8,5.71,6.92c0,4.84-3.05,7.25-6.08,7.25c-1.96,0-3.53-0.76-4.54-2.55h-0.08l-0.11,2.24H702.09z M704.64,928.57
					c0,0.31,0.06,0.62,0.11,0.9c0.48,1.71,1.9,2.88,3.7,2.88c2.58,0,4.12-2.1,4.12-5.21c0-2.72-1.4-5.04-4.03-5.04
					c-1.68,0-3.25,1.15-3.75,3.02c-0.06,0.28-0.14,0.62-0.14,1.01V928.57z"/>
				<path class="st2" d="M725.64,934l-0.2-1.71h-0.08c-0.76,1.06-2.21,2.02-4.14,2.02c-2.74,0-4.14-1.93-4.14-3.89
					c0-3.28,2.91-5.07,8.15-5.04v-0.28c0-1.12-0.31-3.14-3.08-3.14c-1.26,0-2.58,0.39-3.53,1.01l-0.56-1.62
					c1.12-0.73,2.74-1.2,4.45-1.2c4.14,0,5.15,2.83,5.15,5.54v5.07c0,1.18,0.06,2.32,0.22,3.25H725.64z M725.28,927.08
					c-2.69-0.06-5.74,0.42-5.74,3.05c0,1.6,1.06,2.35,2.32,2.35c1.76,0,2.88-1.12,3.28-2.27c0.08-0.25,0.14-0.53,0.14-0.78V927.08z"
					/>
				<path class="st2" d="M731.63,924.12c0-1.4-0.03-2.55-0.11-3.67h2.18l0.14,2.24h0.06c0.67-1.29,2.24-2.55,4.48-2.55
					c1.88,0,4.79,1.12,4.79,5.77V934h-2.46v-7.81c0-2.18-0.81-4-3.14-4c-1.62,0-2.88,1.15-3.3,2.52c-0.11,0.31-0.17,0.73-0.17,1.15
					V934h-2.46V924.12z"/>
				<path class="st2" d="M753.11,914.12h2.46v8.46h0.06c0.39-0.7,1.01-1.32,1.76-1.74c0.73-0.42,1.6-0.7,2.52-0.7
					c1.82,0,4.73,1.12,4.73,5.8V934h-2.46v-7.78c0-2.18-0.81-4.03-3.14-4.03c-1.6,0-2.86,1.12-3.3,2.46
					c-0.14,0.34-0.17,0.7-0.17,1.18V934h-2.46V914.12z"/>
				<path class="st2" d="M776.15,934l-0.2-1.71h-0.08c-0.76,1.06-2.21,2.02-4.14,2.02c-2.74,0-4.14-1.93-4.14-3.89
					c0-3.28,2.91-5.07,8.15-5.04v-0.28c0-1.12-0.31-3.14-3.08-3.14c-1.26,0-2.58,0.39-3.53,1.01l-0.56-1.62
					c1.12-0.73,2.74-1.2,4.45-1.2c4.14,0,5.15,2.83,5.15,5.54v5.07c0,1.18,0.06,2.32,0.22,3.25H776.15z M775.79,927.08
					c-2.69-0.06-5.74,0.42-5.74,3.05c0,1.6,1.06,2.35,2.32,2.35c1.76,0,2.88-1.12,3.28-2.27c0.08-0.25,0.14-0.53,0.14-0.78V927.08z"
					/>
				<path class="st2" d="M782.15,924.12c0-1.4-0.03-2.55-0.11-3.67h2.16l0.11,2.18h0.08c0.76-1.29,2.02-2.49,4.26-2.49
					c1.85,0,3.25,1.12,3.84,2.72h0.06c0.42-0.76,0.95-1.34,1.51-1.76c0.81-0.62,1.71-0.95,3-0.95c1.79,0,4.45,1.18,4.45,5.88V934
					h-2.41v-7.67c0-2.6-0.95-4.17-2.94-4.17c-1.4,0-2.49,1.04-2.91,2.24c-0.11,0.34-0.2,0.78-0.2,1.23V934h-2.41v-8.12
					c0-2.16-0.95-3.72-2.83-3.72c-1.54,0-2.66,1.23-3.05,2.46c-0.14,0.36-0.2,0.78-0.2,1.2V934h-2.41V924.12z"/>
				<path class="st2" d="M805.5,924.12c0-1.4-0.03-2.55-0.11-3.67h2.16l0.11,2.18h0.08c0.76-1.29,2.02-2.49,4.26-2.49
					c1.85,0,3.25,1.12,3.84,2.72h0.06c0.42-0.76,0.95-1.34,1.51-1.76c0.81-0.62,1.71-0.95,3-0.95c1.79,0,4.45,1.18,4.45,5.88V934
					h-2.41v-7.67c0-2.6-0.95-4.17-2.94-4.17c-1.4,0-2.49,1.04-2.91,2.24c-0.11,0.34-0.2,0.78-0.2,1.23V934h-2.41v-8.12
					c0-2.16-0.95-3.72-2.83-3.72c-1.54,0-2.66,1.23-3.05,2.46c-0.14,0.36-0.2,0.78-0.2,1.2V934h-2.41V924.12z"/>
				<path class="st2" d="M830.22,927.67c0.06,3.33,2.18,4.7,4.65,4.7c1.76,0,2.83-0.31,3.75-0.7l0.42,1.76
					c-0.87,0.39-2.35,0.84-4.51,0.84c-4.17,0-6.66-2.74-6.66-6.83s2.41-7.31,6.36-7.31c4.42,0,5.6,3.89,5.6,6.38
					c0,0.5-0.06,0.9-0.08,1.15H830.22z M837.45,925.91c0.03-1.57-0.64-4-3.42-4c-2.49,0-3.58,2.3-3.78,4H837.45z"/>
				<path class="st2" d="M842.88,924.68c0-1.6-0.03-2.97-0.11-4.23h2.16l0.08,2.66h0.11c0.62-1.82,2.1-2.97,3.75-2.97
					c0.28,0,0.48,0.03,0.7,0.08v2.32c-0.25-0.06-0.5-0.08-0.84-0.08c-1.74,0-2.97,1.32-3.3,3.16c-0.06,0.34-0.11,0.73-0.11,1.15V934
					h-2.44V924.68z"/>
				<path class="st2" d="M865.47,934l-0.2-1.71h-0.08c-0.76,1.06-2.21,2.02-4.14,2.02c-2.74,0-4.14-1.93-4.14-3.89
					c0-3.28,2.91-5.07,8.15-5.04v-0.28c0-1.12-0.31-3.14-3.08-3.14c-1.26,0-2.58,0.39-3.53,1.01l-0.56-1.62
					c1.12-0.73,2.74-1.2,4.45-1.2c4.14,0,5.15,2.83,5.15,5.54v5.07c0,1.18,0.06,2.32,0.22,3.25H865.47z M865.11,927.08
					c-2.69-0.06-5.74,0.42-5.74,3.05c0,1.6,1.06,2.35,2.32,2.35c1.76,0,2.88-1.12,3.28-2.27c0.08-0.25,0.14-0.53,0.14-0.78V927.08z"
					/>
				<path class="st2" d="M871.46,924.12c0-1.4-0.03-2.55-0.11-3.67h2.18l0.14,2.24h0.06c0.67-1.29,2.24-2.55,4.48-2.55
					c1.88,0,4.79,1.12,4.79,5.77V934h-2.46v-7.81c0-2.18-0.81-4-3.14-4c-1.62,0-2.88,1.15-3.3,2.52c-0.11,0.31-0.17,0.73-0.17,1.15
					V934h-2.46V924.12z"/>
				<path class="st2" d="M898.71,914.12v16.38c0,1.2,0.03,2.58,0.11,3.5h-2.21l-0.11-2.35h-0.06c-0.76,1.51-2.41,2.66-4.62,2.66
					c-3.28,0-5.8-2.77-5.8-6.89c-0.03-4.51,2.77-7.28,6.08-7.28c2.07,0,3.47,0.98,4.09,2.07h0.06v-8.09H898.71z M896.24,925.96
					c0-0.31-0.03-0.73-0.11-1.04c-0.36-1.57-1.71-2.86-3.56-2.86c-2.55,0-4.06,2.24-4.06,5.24c0,2.74,1.34,5.01,4,5.01
					c1.65,0,3.16-1.09,3.61-2.94c0.08-0.34,0.11-0.67,0.11-1.06V925.96z"/>
				<path class="st2" d="M908.73,914.12h2.46v8.46h0.06c0.39-0.7,1.01-1.32,1.76-1.74c0.73-0.42,1.6-0.7,2.52-0.7
					c1.82,0,4.73,1.12,4.73,5.8V934h-2.46v-7.78c0-2.18-0.81-4.03-3.14-4.03c-1.6,0-2.86,1.12-3.3,2.46
					c-0.14,0.34-0.17,0.7-0.17,1.18V934h-2.46V914.12z"/>
				<path class="st2" d="M925.64,927.67c0.06,3.33,2.18,4.7,4.65,4.7c1.76,0,2.83-0.31,3.75-0.7l0.42,1.76
					c-0.87,0.39-2.35,0.84-4.51,0.84c-4.17,0-6.66-2.74-6.66-6.83s2.41-7.31,6.36-7.31c4.42,0,5.6,3.89,5.6,6.38
					c0,0.5-0.06,0.9-0.08,1.15H925.64z M932.87,925.91c0.03-1.57-0.64-4-3.42-4c-2.49,0-3.58,2.3-3.78,4H932.87z"/>
				<path class="st2" d="M937.24,921.65c0.64-2.35,1.85-5.38,2.6-6.66l1.57-0.17c-0.59,1.65-1.34,4.54-1.65,6.55L937.24,921.65z"/>
				<path class="st2" d="M942.83,931.48c0.73,0.48,2.02,0.98,3.25,0.98c1.79,0,2.63-0.9,2.63-2.02c0-1.18-0.7-1.82-2.52-2.49
					c-2.44-0.87-3.58-2.21-3.58-3.84c0-2.18,1.76-3.98,4.68-3.98c1.37,0,2.58,0.39,3.33,0.84l-0.62,1.79
					c-0.53-0.34-1.51-0.78-2.77-0.78c-1.46,0-2.27,0.84-2.27,1.85c0,1.12,0.81,1.62,2.58,2.3c2.35,0.9,3.56,2.07,3.56,4.09
					c0,2.38-1.85,4.06-5.07,4.06c-1.48,0-2.86-0.36-3.81-0.92L942.83,931.48z"/>
				<path class="st2" d="M971.87,920.45c-0.06,0.98-0.11,2.07-0.11,3.72v7.87c0,3.11-0.62,5.01-1.93,6.19
					c-1.32,1.23-3.22,1.62-4.93,1.62c-1.62,0-3.42-0.39-4.51-1.12l0.62-1.88c0.9,0.56,2.3,1.06,3.98,1.06
					c2.52,0,4.37-1.32,4.37-4.73v-1.51h-0.06c-0.76,1.26-2.21,2.27-4.31,2.27c-3.36,0-5.77-2.86-5.77-6.61c0-4.59,3-7.2,6.1-7.2
					c2.35,0,3.64,1.23,4.23,2.35h0.06l0.11-2.04H971.87z M969.32,925.8c0-0.42-0.03-0.78-0.14-1.12c-0.45-1.43-1.65-2.6-3.44-2.6
					c-2.35,0-4.03,1.99-4.03,5.12c0,2.66,1.34,4.87,4,4.87c1.51,0,2.88-0.95,3.42-2.52c0.14-0.42,0.2-0.9,0.2-1.32V925.8z"/>
				<path class="st2" d="M988.11,927.11c0,5.01-3.47,7.2-6.75,7.2c-3.67,0-6.5-2.69-6.5-6.97c0-4.54,2.97-7.2,6.72-7.2
					C985.48,920.14,988.11,922.97,988.11,927.11z M977.36,927.25c0,2.97,1.71,5.21,4.12,5.21c2.35,0,4.12-2.21,4.12-5.26
					c0-2.3-1.15-5.21-4.06-5.21C978.62,921.99,977.36,924.68,977.36,927.25z"/>
				<path class="st2" d="M991.22,924.12c0-1.4-0.03-2.55-0.11-3.67h2.18l0.14,2.24h0.06c0.67-1.29,2.24-2.55,4.48-2.55
					c1.88,0,4.79,1.12,4.79,5.77V934h-2.46v-7.81c0-2.18-0.81-4-3.14-4c-1.62,0-2.88,1.15-3.3,2.52c-0.11,0.31-0.17,0.73-0.17,1.15
					V934h-2.46V924.12z"/>
				<path class="st2" d="M1008.13,927.67c0.06,3.33,2.18,4.7,4.65,4.7c1.76,0,2.83-0.31,3.75-0.7l0.42,1.76
					c-0.87,0.39-2.35,0.84-4.51,0.84c-4.17,0-6.66-2.74-6.66-6.83s2.41-7.31,6.36-7.31c4.42,0,5.6,3.89,5.6,6.38
					c0,0.5-0.06,0.9-0.08,1.15H1008.13z M1015.35,925.91c0.03-1.57-0.64-4-3.42-4c-2.49,0-3.58,2.3-3.78,4H1015.35z"/>
				<path class="st2" d="M1026.72,924.12c0-1.4-0.03-2.55-0.11-3.67h2.18l0.14,2.24h0.06c0.67-1.29,2.24-2.55,4.48-2.55
					c1.88,0,4.79,1.12,4.79,5.77V934h-2.46v-7.81c0-2.18-0.81-4-3.14-4c-1.62,0-2.88,1.15-3.3,2.52c-0.11,0.31-0.17,0.73-0.17,1.15
					V934h-2.46V924.12z"/>
				<path class="st2" d="M1054.53,927.11c0,5.01-3.47,7.2-6.75,7.2c-3.67,0-6.5-2.69-6.5-6.97c0-4.54,2.97-7.2,6.72-7.2
					C1051.89,920.14,1054.53,922.97,1054.53,927.11z M1043.77,927.25c0,2.97,1.71,5.21,4.12,5.21c2.35,0,4.12-2.21,4.12-5.26
					c0-2.3-1.15-5.21-4.06-5.21C1045.03,921.99,1043.77,924.68,1043.77,927.25z"/>
				<path class="st2" d="M1058.42,920.45l1.79,6.89c0.39,1.51,0.76,2.91,1.01,4.31h0.08c0.31-1.37,0.76-2.83,1.2-4.28l2.21-6.92
					h2.07l2.1,6.78c0.5,1.62,0.9,3.05,1.2,4.42h0.08c0.22-1.37,0.59-2.8,1.04-4.4l1.93-6.8h2.44l-4.37,13.55h-2.24l-2.07-6.47
					c-0.48-1.51-0.87-2.86-1.2-4.45h-0.06c-0.34,1.62-0.76,3.02-1.23,4.48l-2.18,6.44h-2.24l-4.09-13.55H1058.42z"/>
				<path class="st2" d="M1083.98,914.12h2.46V934h-2.46V914.12z"/>
				<path class="st2" d="M1102.85,927.11c0,5.01-3.47,7.2-6.75,7.2c-3.67,0-6.5-2.69-6.5-6.97c0-4.54,2.97-7.2,6.72-7.2
					C1100.22,920.14,1102.85,922.97,1102.85,927.11z M1092.1,927.25c0,2.97,1.71,5.21,4.12,5.21c2.35,0,4.12-2.21,4.12-5.26
					c0-2.3-1.15-5.21-4.06-5.21C1093.36,921.99,1092.1,924.68,1092.1,927.25z"/>
				<path class="st2" d="M1105.96,914.12h2.46V934h-2.46V914.12z"/>
			</g>
		</g>
	</g>
	<g id="_x30_1">
		<g id="User">
			<g id="Profile_Picture_Kopie">
				<g>
					<defs>
						<circle id="Mask_2_" cx="371.5" cy="795.5" r="37.5"/>
					</defs>
					<clipPath id="Mask_7_">
						<use xlink:href="#Mask_2_"  style="overflow:visible;"/>
					</clipPath>
				</g>
			</g>
			<g id="Name_3_">
				<g>
					<path class="st4" d="M427.08,781.8c-0.19,0-0.34-0.06-0.46-0.18c-0.12-0.12-0.18-0.27-0.18-0.46v-18.28
						c0-0.21,0.06-0.37,0.18-0.49c0.12-0.12,0.28-0.18,0.46-0.18h1.4c0.22,0,0.39,0.06,0.5,0.17c0.11,0.11,0.19,0.21,0.22,0.28
						l5.91,11.31l5.96-11.31c0.04-0.07,0.11-0.17,0.21-0.28c0.1-0.11,0.27-0.17,0.49-0.17h1.37c0.21,0,0.37,0.06,0.49,0.18
						c0.12,0.12,0.18,0.28,0.18,0.49v18.28c0,0.19-0.06,0.34-0.18,0.46c-0.12,0.12-0.28,0.18-0.49,0.18h-1.37
						c-0.19,0-0.34-0.06-0.46-0.18c-0.12-0.12-0.18-0.27-0.18-0.46v-13.78l-4.68,9.13c-0.08,0.19-0.19,0.33-0.34,0.43
						s-0.34,0.15-0.56,0.15h-0.87c-0.24,0-0.43-0.05-0.56-0.15s-0.24-0.25-0.34-0.43l-4.7-9.13v13.78c0,0.19-0.06,0.34-0.18,0.46
						c-0.12,0.12-0.28,0.18-0.46,0.18H427.08z"/>
					<path class="st4" d="M452.36,782.08c-0.93,0-1.78-0.19-2.55-0.56s-1.38-0.88-1.85-1.51c-0.47-0.63-0.7-1.35-0.7-2.16
						c0-1.29,0.52-2.31,1.57-3.08c1.05-0.76,2.41-1.27,4.09-1.51l4.17-0.59v-0.81c0-0.9-0.26-1.6-0.77-2.1s-1.35-0.76-2.51-0.76
						c-0.82,0-1.49,0.17-2.02,0.5c-0.52,0.34-0.89,0.77-1.09,1.29c-0.11,0.28-0.31,0.42-0.59,0.42h-1.26
						c-0.21,0-0.36-0.06-0.46-0.18c-0.1-0.12-0.15-0.27-0.15-0.43c0-0.28,0.11-0.63,0.32-1.04c0.21-0.41,0.55-0.81,0.99-1.2
						c0.45-0.39,1.02-0.72,1.72-0.99c0.7-0.27,1.55-0.41,2.56-0.41c1.12,0,2.06,0.14,2.83,0.43c0.76,0.29,1.37,0.68,1.81,1.16
						s0.76,1.04,0.95,1.65c0.2,0.62,0.29,1.24,0.29,1.88v9.07c0,0.19-0.06,0.34-0.18,0.46c-0.12,0.12-0.28,0.18-0.46,0.18h-1.29
						c-0.21,0-0.36-0.06-0.48-0.18c-0.11-0.12-0.17-0.27-0.17-0.46v-1.2c-0.24,0.34-0.57,0.67-0.98,0.99
						c-0.41,0.33-0.92,0.6-1.54,0.81C454.02,781.97,453.26,782.08,452.36,782.08z M452.95,779.98c0.77,0,1.47-0.16,2.1-0.49
						c0.63-0.33,1.13-0.83,1.5-1.53c0.36-0.69,0.55-1.56,0.55-2.6v-0.78l-3.25,0.48c-1.33,0.19-2.32,0.5-3,0.94
						c-0.67,0.44-1.01,0.99-1.01,1.67c0,0.52,0.15,0.96,0.46,1.3c0.31,0.34,0.7,0.6,1.18,0.77S452.45,779.98,452.95,779.98z"/>
					<path class="st4" d="M464.4,781.8c-0.19,0-0.34-0.06-0.46-0.18c-0.12-0.12-0.18-0.27-0.18-0.46v-13.24
						c0-0.19,0.06-0.34,0.18-0.48c0.12-0.13,0.28-0.2,0.46-0.2h1.29c0.19,0,0.35,0.07,0.48,0.2c0.13,0.13,0.2,0.29,0.2,0.48v1.23
						c0.37-0.63,0.89-1.11,1.54-1.43s1.45-0.48,2.38-0.48h1.09c0.19,0,0.34,0.06,0.46,0.18c0.12,0.12,0.18,0.28,0.18,0.46v1.15
						c0,0.19-0.06,0.34-0.18,0.45c-0.12,0.11-0.28,0.17-0.46,0.17h-1.68c-1.01,0-1.8,0.29-2.38,0.88c-0.58,0.59-0.87,1.39-0.87,2.39
						v8.23c0,0.19-0.07,0.34-0.2,0.46c-0.13,0.12-0.29,0.18-0.48,0.18H464.4z"/>
					<path class="st4" d="M474.82,764.52c-0.19,0-0.34-0.06-0.46-0.18c-0.12-0.12-0.18-0.28-0.18-0.46v-1.51
						c0-0.19,0.06-0.34,0.18-0.48c0.12-0.13,0.28-0.2,0.46-0.2h1.76c0.19,0,0.35,0.07,0.48,0.2c0.13,0.13,0.2,0.29,0.2,0.48v1.51
						c0,0.19-0.07,0.34-0.2,0.46c-0.13,0.12-0.29,0.18-0.48,0.18H474.82z M475.04,781.8c-0.19,0-0.34-0.06-0.46-0.18
						c-0.12-0.12-0.18-0.27-0.18-0.46v-13.27c0-0.19,0.06-0.34,0.18-0.46s0.28-0.18,0.46-0.18h1.34c0.19,0,0.34,0.06,0.46,0.18
						c0.12,0.12,0.18,0.28,0.18,0.46v13.27c0,0.19-0.06,0.34-0.18,0.46c-0.12,0.12-0.28,0.18-0.46,0.18H475.04z"/>
					<path class="st4" d="M485.23,782.08c-0.93,0-1.78-0.19-2.55-0.56s-1.38-0.88-1.85-1.51c-0.47-0.63-0.7-1.35-0.7-2.16
						c0-1.29,0.52-2.31,1.57-3.08c1.05-0.76,2.41-1.27,4.09-1.51l4.17-0.59v-0.81c0-0.9-0.26-1.6-0.77-2.1s-1.35-0.76-2.51-0.76
						c-0.82,0-1.49,0.17-2.02,0.5c-0.52,0.34-0.89,0.77-1.09,1.29c-0.11,0.28-0.31,0.42-0.59,0.42h-1.26
						c-0.21,0-0.36-0.06-0.46-0.18c-0.1-0.12-0.15-0.27-0.15-0.43c0-0.28,0.11-0.63,0.32-1.04c0.21-0.41,0.55-0.81,0.99-1.2
						c0.45-0.39,1.02-0.72,1.72-0.99c0.7-0.27,1.55-0.41,2.56-0.41c1.12,0,2.06,0.14,2.83,0.43c0.76,0.29,1.37,0.68,1.81,1.16
						s0.76,1.04,0.95,1.65c0.2,0.62,0.29,1.24,0.29,1.88v9.07c0,0.19-0.06,0.34-0.18,0.46c-0.12,0.12-0.28,0.18-0.46,0.18h-1.29
						c-0.21,0-0.36-0.06-0.48-0.18c-0.11-0.12-0.17-0.27-0.17-0.46v-1.2c-0.24,0.34-0.57,0.67-0.98,0.99
						c-0.41,0.33-0.92,0.6-1.54,0.81C486.89,781.97,486.13,782.08,485.23,782.08z M485.82,779.98c0.77,0,1.47-0.16,2.1-0.49
						c0.63-0.33,1.13-0.83,1.5-1.53c0.36-0.69,0.55-1.56,0.55-2.6v-0.78l-3.25,0.48c-1.33,0.19-2.32,0.5-3,0.94
						c-0.67,0.44-1.01,0.99-1.01,1.67c0,0.52,0.15,0.96,0.46,1.3c0.31,0.34,0.7,0.6,1.18,0.77S485.32,779.98,485.82,779.98z"/>
					<path class="st4" d="M497.27,781.8c-0.19,0-0.34-0.06-0.46-0.18c-0.12-0.12-0.18-0.27-0.18-0.46v-13.27
						c0-0.19,0.06-0.34,0.18-0.46s0.28-0.18,0.46-0.18h1.32c0.19,0,0.34,0.06,0.46,0.18c0.12,0.12,0.18,0.28,0.18,0.46v1.23
						c0.49-0.63,1.1-1.15,1.83-1.55s1.68-0.6,2.84-0.6c1.21,0,2.25,0.27,3.09,0.8c0.85,0.53,1.49,1.27,1.93,2.21
						s0.66,2.04,0.66,3.29v7.9c0,0.19-0.06,0.34-0.18,0.46c-0.12,0.12-0.28,0.18-0.46,0.18h-1.4c-0.19,0-0.34-0.06-0.46-0.18
						c-0.12-0.12-0.18-0.27-0.18-0.46v-7.76c0-1.31-0.32-2.33-0.95-3.07c-0.64-0.74-1.57-1.11-2.8-1.11c-1.16,0-2.09,0.37-2.79,1.11
						c-0.7,0.74-1.05,1.76-1.05,3.07v7.76c0,0.19-0.06,0.34-0.18,0.46c-0.12,0.12-0.28,0.18-0.46,0.18H497.27z"/>
				</g>
			</g>
		</g>
		<g id="Message">
			<g>
				<path class="st2" d="M425.87,827.12c-0.11-2.8,1.4-4.23,3.33-4.23c1.18,0,2.07,0.36,3.95,1.26c1.43,0.67,2.46,1.18,3.5,1.18
					c1.01,0,1.48-0.81,1.51-2.35h1.68c0.14,3.14-1.48,4.23-3.22,4.23c-1.12,0-2.13-0.34-4.06-1.23c-1.32-0.64-2.35-1.23-3.36-1.23
					c-1.01,0-1.62,0.7-1.68,2.38H425.87z"/>
				<path class="st2" d="M443.12,833c0.06-0.92,0.11-2.3,0.11-3.5v-16.38h2.44v8.51h0.06c0.87-1.51,2.44-2.49,4.62-2.49
					c3.36,0,5.74,2.8,5.71,6.92c0,4.84-3.05,7.25-6.08,7.25c-1.96,0-3.53-0.76-4.54-2.55h-0.08l-0.11,2.24H443.12z M445.67,827.57
					c0,0.31,0.06,0.62,0.11,0.9c0.48,1.71,1.9,2.88,3.7,2.88c2.58,0,4.12-2.1,4.12-5.21c0-2.72-1.4-5.04-4.03-5.04
					c-1.68,0-3.25,1.15-3.75,3.02c-0.06,0.28-0.14,0.62-0.14,1.01V827.57z"/>
				<path class="st2" d="M466.67,833l-0.2-1.71h-0.08c-0.76,1.06-2.21,2.02-4.14,2.02c-2.74,0-4.14-1.93-4.14-3.89
					c0-3.28,2.91-5.07,8.15-5.04v-0.28c0-1.12-0.31-3.14-3.08-3.14c-1.26,0-2.58,0.39-3.53,1.01l-0.56-1.62
					c1.12-0.73,2.74-1.2,4.45-1.2c4.14,0,5.15,2.83,5.15,5.54v5.07c0,1.18,0.06,2.32,0.22,3.25H466.67z M466.3,826.08
					c-2.69-0.06-5.74,0.42-5.74,3.05c0,1.6,1.06,2.35,2.32,2.35c1.76,0,2.88-1.12,3.28-2.27c0.08-0.25,0.14-0.53,0.14-0.78V826.08z"
					/>
				<path class="st2" d="M472.66,823.12c0-1.4-0.03-2.55-0.11-3.67h2.18l0.14,2.24h0.06c0.67-1.29,2.24-2.55,4.48-2.55
					c1.88,0,4.79,1.12,4.79,5.77V833h-2.46v-7.81c0-2.18-0.81-4-3.14-4c-1.62,0-2.88,1.15-3.3,2.52c-0.11,0.31-0.17,0.73-0.17,1.15
					V833h-2.46V823.12z"/>
				<path class="st2" d="M506.76,834.79c-1.54,0.81-3.11,1.12-4.98,1.12c-4.59,0-8.48-3.36-8.48-8.74c0-5.77,4-10.75,10.22-10.75
					c4.87,0,8.15,3.42,8.15,8.09c0,4.2-2.35,6.66-4.98,6.66c-1.12,0-2.16-0.76-2.07-2.46h-0.11c-0.98,1.65-2.27,2.46-3.95,2.46
					c-1.62,0-3.02-1.32-3.02-3.53c0-3.47,2.74-6.64,6.64-6.64c1.2,0,2.27,0.25,3,0.59l-0.95,5.07c-0.42,2.13-0.08,3.11,0.84,3.14
					c1.43,0.03,3.02-1.88,3.02-5.12c0-4.06-2.44-6.97-6.78-6.97c-4.56,0-8.4,3.61-8.4,9.3c0,4.68,3.05,7.56,7.2,7.56
					c1.6,0,3.08-0.34,4.23-0.98L506.76,834.79z M505.22,822.7c-0.28-0.08-0.76-0.2-1.4-0.2c-2.46,0-4.45,2.32-4.45,5.04
					c0,1.23,0.62,2.13,1.85,2.13c1.62,0,3.11-2.07,3.42-3.81L505.22,822.7z"/>
				<path class="st2" d="M514.85,814.38c1.06-0.22,2.74-0.39,4.45-0.39c2.44,0,4,0.42,5.18,1.37c0.98,0.73,1.57,1.85,1.57,3.33
					c0,1.82-1.2,3.42-3.19,4.14v0.06c1.79,0.45,3.89,1.93,3.89,4.73c0,1.62-0.64,2.86-1.6,3.78c-1.32,1.2-3.44,1.76-6.52,1.76
					c-1.68,0-2.97-0.11-3.78-0.22V814.38z M517.29,822.11h2.21c2.58,0,4.09-1.34,4.09-3.16c0-2.21-1.68-3.08-4.14-3.08
					c-1.12,0-1.76,0.08-2.16,0.17V822.11z M517.29,831.15c0.48,0.08,1.18,0.11,2.04,0.11c2.52,0,4.84-0.92,4.84-3.67
					c0-2.58-2.21-3.64-4.87-3.64h-2.02V831.15z"/>
				<path class="st2" d="M542.32,826.11c0,5.01-3.47,7.2-6.75,7.2c-3.67,0-6.5-2.69-6.5-6.97c0-4.54,2.97-7.2,6.72-7.2
					C539.69,819.14,542.32,821.97,542.32,826.11z M531.57,826.25c0,2.97,1.71,5.21,4.12,5.21c2.35,0,4.12-2.21,4.12-5.26
					c0-2.3-1.15-5.21-4.06-5.21S531.57,823.68,531.57,826.25z"/>
				<path class="st2" d="M545.32,833c0.06-0.92,0.11-2.3,0.11-3.5v-16.38h2.44v8.51h0.06c0.87-1.51,2.44-2.49,4.62-2.49
					c3.36,0,5.74,2.8,5.71,6.92c0,4.84-3.05,7.25-6.08,7.25c-1.96,0-3.53-0.76-4.54-2.55h-0.08l-0.11,2.24H545.32z M547.87,827.57
					c0,0.31,0.06,0.62,0.11,0.9c0.48,1.71,1.9,2.88,3.7,2.88c2.58,0,4.12-2.1,4.12-5.21c0-2.72-1.4-5.04-4.03-5.04
					c-1.68,0-3.25,1.15-3.75,3.02c-0.06,0.28-0.14,0.62-0.14,1.01V827.57z"/>
				<path class="st2" d="M566.96,830.48c0.73,0.48,2.02,0.98,3.25,0.98c1.79,0,2.63-0.9,2.63-2.02c0-1.18-0.7-1.82-2.52-2.49
					c-2.44-0.87-3.58-2.21-3.58-3.84c0-2.18,1.76-3.98,4.68-3.98c1.37,0,2.58,0.39,3.33,0.84l-0.62,1.79
					c-0.53-0.34-1.51-0.78-2.77-0.78c-1.46,0-2.27,0.84-2.27,1.85c0,1.12,0.81,1.62,2.58,2.3c2.35,0.9,3.56,2.07,3.56,4.09
					c0,2.38-1.85,4.06-5.07,4.06c-1.48,0-2.86-0.36-3.81-0.92L566.96,830.48z"/>
				<path class="st2" d="M581.35,815.56v3.89h3.53v1.88h-3.53v7.31c0,1.68,0.48,2.63,1.85,2.63c0.64,0,1.12-0.08,1.43-0.17
					l0.11,1.85c-0.48,0.2-1.23,0.34-2.18,0.34c-1.15,0-2.07-0.36-2.66-1.04c-0.7-0.73-0.95-1.93-0.95-3.53v-7.39h-2.1v-1.88h2.1
					v-3.25L581.35,815.56z"/>
				<path class="st2" d="M599.75,826.11c0,5.01-3.47,7.2-6.75,7.2c-3.67,0-6.5-2.69-6.5-6.97c0-4.54,2.97-7.2,6.72-7.2
					C597.12,819.14,599.75,821.97,599.75,826.11z M589,826.25c0,2.97,1.71,5.21,4.12,5.21c2.35,0,4.12-2.21,4.12-5.26
					c0-2.3-1.15-5.21-4.06-5.21S589,823.68,589,826.25z"/>
				<path class="st2" d="M602.86,823.87c0-1.74-0.06-3.14-0.11-4.42h2.21l0.11,2.32h0.06c1.01-1.65,2.6-2.63,4.82-2.63
					c3.28,0,5.74,2.77,5.74,6.89c0,4.87-2.97,7.28-6.16,7.28c-1.79,0-3.36-0.78-4.17-2.13h-0.06v7.36h-2.44V823.87z M605.29,827.48
					c0,0.36,0.06,0.7,0.11,1.01c0.45,1.71,1.93,2.88,3.7,2.88c2.6,0,4.12-2.13,4.12-5.24c0-2.72-1.43-5.04-4.03-5.04
					c-1.68,0-3.25,1.2-3.72,3.05c-0.08,0.31-0.17,0.67-0.17,1.01V827.48z"/>
				<path class="st2" d="M624.61,833c0.06-0.92,0.11-2.3,0.11-3.5v-16.38h2.44v8.51h0.06c0.87-1.51,2.44-2.49,4.62-2.49
					c3.36,0,5.74,2.8,5.71,6.92c0,4.84-3.05,7.25-6.08,7.25c-1.96,0-3.53-0.76-4.54-2.55h-0.08l-0.11,2.24H624.61z M627.16,827.57
					c0,0.31,0.06,0.62,0.11,0.9c0.48,1.71,1.9,2.88,3.7,2.88c2.58,0,4.12-2.1,4.12-5.21c0-2.72-1.4-5.04-4.03-5.04
					c-1.68,0-3.25,1.15-3.75,3.02c-0.06,0.28-0.14,0.62-0.14,1.01V827.57z"/>
				<path class="st2" d="M652,829.3c0,1.4,0.03,2.63,0.11,3.7h-2.18l-0.14-2.21h-0.06c-0.64,1.09-2.07,2.52-4.48,2.52
					c-2.13,0-4.68-1.18-4.68-5.94v-7.92h2.46v7.5c0,2.58,0.78,4.31,3.02,4.31c1.65,0,2.8-1.15,3.25-2.24
					c0.14-0.36,0.22-0.81,0.22-1.26v-8.32H652V829.3z"/>
				<path class="st2" d="M656.08,813.12h2.46V833h-2.46V813.12z"/>
				<path class="st2" d="M662.69,813.12h2.46V833h-2.46V813.12z"/>
				<path class="st2" d="M670.2,819.45l2.97,8.01c0.31,0.9,0.64,1.96,0.87,2.77h0.06c0.25-0.81,0.53-1.85,0.87-2.83l2.69-7.95h2.6
					l-3.7,9.66c-1.76,4.65-2.97,7.03-4.65,8.48c-1.2,1.06-2.41,1.48-3.02,1.6l-0.62-2.07c0.62-0.2,1.43-0.59,2.16-1.2
					c0.67-0.53,1.51-1.48,2.07-2.74c0.11-0.25,0.2-0.45,0.2-0.59s-0.06-0.34-0.17-0.64l-5.01-12.49H670.2z"/>
				<path class="st2" d="M685.23,815.64c0.03,0.84-0.59,1.51-1.57,1.51c-0.87,0-1.48-0.67-1.48-1.51c0-0.87,0.64-1.54,1.54-1.54
					C684.64,814.1,685.23,814.77,685.23,815.64z M682.49,833v-13.55h2.46V833H682.49z"/>
				<path class="st2" d="M689.04,823.12c0-1.4-0.03-2.55-0.11-3.67h2.18l0.14,2.24h0.06c0.67-1.29,2.24-2.55,4.48-2.55
					c1.88,0,4.79,1.12,4.79,5.77V833h-2.46v-7.81c0-2.18-0.81-4-3.14-4c-1.62,0-2.88,1.15-3.3,2.52c-0.11,0.31-0.17,0.73-0.17,1.15
					V833h-2.46V823.12z"/>
				<path class="st2" d="M716.25,819.45c-0.06,0.98-0.11,2.07-0.11,3.72v7.87c0,3.11-0.62,5.01-1.93,6.19
					c-1.32,1.23-3.22,1.62-4.93,1.62c-1.62,0-3.42-0.39-4.51-1.12l0.62-1.88c0.9,0.56,2.3,1.06,3.98,1.06
					c2.52,0,4.37-1.32,4.37-4.73v-1.51h-0.06c-0.76,1.26-2.21,2.27-4.31,2.27c-3.36,0-5.77-2.86-5.77-6.61c0-4.59,3-7.2,6.1-7.2
					c2.35,0,3.64,1.23,4.23,2.35h0.06l0.11-2.04H716.25z M713.71,824.8c0-0.42-0.03-0.78-0.14-1.12c-0.45-1.43-1.65-2.6-3.44-2.6
					c-2.35,0-4.03,1.99-4.03,5.12c0,2.66,1.34,4.87,4,4.87c1.51,0,2.88-0.95,3.42-2.52c0.14-0.42,0.2-0.9,0.2-1.32V824.8z"/>
				<path class="st2" d="M726.17,823.12c0-1.4-0.03-2.55-0.11-3.67h2.16l0.11,2.18h0.08c0.76-1.29,2.02-2.49,4.26-2.49
					c1.85,0,3.25,1.12,3.84,2.72h0.06c0.42-0.76,0.95-1.34,1.51-1.76c0.81-0.62,1.71-0.95,3-0.95c1.79,0,4.45,1.18,4.45,5.88V833
					h-2.41v-7.67c0-2.6-0.95-4.17-2.94-4.17c-1.4,0-2.49,1.04-2.91,2.24c-0.11,0.34-0.2,0.78-0.2,1.23V833h-2.41v-8.12
					c0-2.16-0.95-3.72-2.83-3.72c-1.54,0-2.66,1.23-3.05,2.46c-0.14,0.36-0.2,0.78-0.2,1.2V833h-2.41V823.12z"/>
				<path class="st2" d="M750.89,826.67c0.06,3.33,2.18,4.7,4.65,4.7c1.76,0,2.83-0.31,3.75-0.7l0.42,1.76
					c-0.87,0.39-2.35,0.84-4.51,0.84c-4.17,0-6.66-2.74-6.66-6.83s2.41-7.31,6.36-7.31c4.42,0,5.6,3.89,5.6,6.38
					c0,0.5-0.06,0.9-0.08,1.15H750.89z M758.11,824.91c0.03-1.57-0.64-4-3.42-4c-2.49,0-3.58,2.3-3.78,4H758.11z"/>
				<path class="st2" d="M768.89,821.69c0-1.04,0.7-1.76,1.68-1.76c0.98,0,1.62,0.73,1.65,1.76c0,0.98-0.64,1.74-1.68,1.74
					C769.57,823.42,768.89,822.67,768.89,821.69z M768.89,831.57c0-1.04,0.7-1.76,1.68-1.76c0.98,0,1.62,0.73,1.65,1.76
					c0,0.98-0.64,1.74-1.68,1.74C769.57,833.31,768.89,832.55,768.89,831.57z"/>
				<path class="st2" d="M784.94,832.5c-0.64,0.34-2.07,0.78-3.89,0.78c-4.09,0-6.75-2.77-6.75-6.92c0-4.17,2.86-7.2,7.28-7.2
					c1.46,0,2.74,0.36,3.42,0.7l-0.56,1.9c-0.59-0.34-1.51-0.64-2.86-0.64c-3.11,0-4.79,2.3-4.79,5.12c0,3.14,2.02,5.07,4.7,5.07
					c1.4,0,2.32-0.36,3.02-0.67L784.94,832.5z"/>
			</g>
		</g>
	</g>
</g>
<g id="Channels_list">
	<path id="Background" class="st3" d="M225,76H0v979c0,13.81,11.19,25,25,25h200c13.81,0,25-11.19,25-25V101
		C250,87.19,238.81,76,225,76z"/>
	<g id="Selector">
		<path class="st0" d="M237,177H12c-2.76,0-5-2.24-5-5v-25c0-2.76,2.24-5,5-5h225c2.76,0,5,2.24,5,5v25
			C242,174.76,239.76,177,237,177z"/>
	</g>
	<g id="Channels">
		<g id="_x23_Chat_Kopie">
			<g>
				<path class="st2" d="M60.07,216.46l-4.84-14.83h2.07l2.31,7.31c0.64,2,1.19,3.81,1.58,5.54h0.04c0.42-1.72,1.03-3.59,1.69-5.52
					l2.51-7.33h2.05l-5.3,14.83H60.07z"/>
				<path class="st2" d="M77.93,211.04c0,3.94-2.73,5.65-5.3,5.65c-2.88,0-5.1-2.11-5.1-5.48c0-3.56,2.33-5.65,5.28-5.65
					C75.86,205.57,77.93,207.79,77.93,211.04z M69.48,211.15c0,2.33,1.34,4.09,3.23,4.09c1.85,0,3.23-1.74,3.23-4.14
					c0-1.8-0.9-4.09-3.19-4.09C70.47,207.02,69.48,209.13,69.48,211.15z"/>
				<path class="st2" d="M82.53,202.81c0.02,0.66-0.46,1.19-1.23,1.19c-0.68,0-1.17-0.53-1.17-1.19c0-0.68,0.51-1.21,1.21-1.21
					C82.07,201.6,82.53,202.13,82.53,202.81z M80.37,216.46v-10.65h1.94v10.65H80.37z"/>
				<path class="st2" d="M93.11,216.06c-0.51,0.26-1.63,0.62-3.06,0.62c-3.21,0-5.3-2.18-5.3-5.44c0-3.28,2.24-5.65,5.72-5.65
					c1.14,0,2.16,0.29,2.68,0.55l-0.44,1.5c-0.46-0.26-1.19-0.51-2.24-0.51c-2.44,0-3.76,1.8-3.76,4.03c0,2.46,1.58,3.98,3.7,3.98
					c1.1,0,1.83-0.29,2.38-0.53L93.11,216.06z"/>
				<path class="st2" d="M96.32,211.48c0.04,2.62,1.72,3.7,3.65,3.7c1.39,0,2.22-0.24,2.95-0.55l0.33,1.39
					c-0.68,0.31-1.85,0.66-3.54,0.66c-3.28,0-5.24-2.16-5.24-5.37c0-3.21,1.89-5.74,5-5.74c3.48,0,4.4,3.06,4.4,5.02
					c0,0.4-0.04,0.7-0.07,0.9H96.32z M102,210.1c0.02-1.23-0.51-3.15-2.68-3.15c-1.96,0-2.82,1.8-2.97,3.15H102z"/>
			</g>
		</g>
		<g id="_x23_Chat">
			<g>
				<path class="st2" d="M67.17,165.97c-0.7,0.35-2.11,0.7-3.92,0.7c-4.18,0-7.33-2.64-7.33-7.5c0-4.64,3.15-7.79,7.75-7.79
					c1.85,0,3.01,0.4,3.52,0.66l-0.46,1.56c-0.73-0.35-1.76-0.62-2.99-0.62c-3.48,0-5.79,2.22-5.79,6.12c0,3.63,2.09,5.96,5.7,5.96
					c1.17,0,2.35-0.24,3.12-0.62L67.17,165.97z"/>
				<path class="st2" d="M69.5,150.83h1.94v6.65h0.04c0.31-0.55,0.79-1.03,1.39-1.36c0.57-0.33,1.25-0.55,1.98-0.55
					c1.43,0,3.72,0.88,3.72,4.55v6.34h-1.94v-6.12c0-1.72-0.64-3.17-2.46-3.17c-1.25,0-2.24,0.88-2.6,1.94
					c-0.11,0.26-0.13,0.55-0.13,0.92v6.42H69.5V150.83z"/>
				<path class="st2" d="M87.61,166.46l-0.15-1.34h-0.07c-0.59,0.84-1.74,1.58-3.26,1.58c-2.16,0-3.26-1.52-3.26-3.06
					c0-2.57,2.29-3.98,6.4-3.96v-0.22c0-0.88-0.24-2.46-2.42-2.46c-0.99,0-2.02,0.31-2.77,0.79l-0.44-1.28
					c0.88-0.57,2.16-0.95,3.5-0.95c3.26,0,4.05,2.22,4.05,4.36v3.98c0,0.92,0.04,1.83,0.18,2.55H87.61z M87.32,161.02
					c-2.11-0.04-4.51,0.33-4.51,2.4c0,1.25,0.84,1.85,1.83,1.85c1.39,0,2.27-0.88,2.57-1.78c0.07-0.2,0.11-0.42,0.11-0.62V161.02z"
					/>
				<path class="st2" d="M94.56,152.75v3.06h2.77v1.47h-2.77v5.74c0,1.32,0.37,2.07,1.45,2.07c0.51,0,0.88-0.07,1.12-0.13l0.09,1.45
					c-0.37,0.15-0.97,0.26-1.72,0.26c-0.9,0-1.63-0.29-2.09-0.81c-0.55-0.57-0.75-1.52-0.75-2.77v-5.81h-1.65v-1.47h1.65v-2.55
					L94.56,152.75z"/>
			</g>
			<path id="_x23__1_" class="st6" d="M28.89,167.66c-0.31,0-0.55-0.28-0.49-0.59l0.61-3.41h-3.4c-0.31,0-0.55-0.28-0.49-0.59
				l0.17-1c0.04-0.24,0.25-0.41,0.49-0.41h3.58l1.06-6H27c-0.31,0-0.55-0.28-0.49-0.59l0.17-1c0.04-0.24,0.25-0.41,0.49-0.41h3.58
				l0.64-3.59c0.04-0.24,0.25-0.41,0.49-0.41h0.98c0.31,0,0.55,0.28,0.49,0.59l-0.61,3.41h6l0.64-3.59
				c0.04-0.24,0.25-0.41,0.49-0.41h0.98c0.31,0,0.55,0.28,0.49,0.59l-0.61,3.41h3.4c0.31,0,0.55,0.28,0.49,0.59l-0.17,1
				c-0.04,0.24-0.25,0.41-0.49,0.41h-3.58l-1.06,6h3.4c0.31,0,0.55,0.28,0.49,0.59l-0.17,1c-0.04,0.24-0.25,0.41-0.49,0.41H39
				l-0.64,3.59c-0.04,0.24-0.25,0.41-0.49,0.41h-0.98c-0.31,0-0.55-0.28-0.49-0.59l0.61-3.41h-6l-0.64,3.59
				c-0.04,0.24-0.25,0.41-0.49,0.41H28.89z M32.41,155.66l-1.06,6h6l1.06-6H32.41z"/>
		</g>
		<g id="_x23_News">
			<g>
				<path class="st2" d="M56.81,116.46v-14.83h2.09l4.75,7.5c1.1,1.74,1.96,3.3,2.66,4.82l0.04-0.02c-0.18-1.98-0.22-3.78-0.22-6.1
					v-6.2h1.8v14.83h-1.94l-4.71-7.52c-1.03-1.65-2.02-3.34-2.77-4.95L58.46,104c0.11,1.87,0.15,3.65,0.15,6.12v6.34H56.81z"/>
				<path class="st2" d="M72.3,111.48c0.04,2.62,1.72,3.7,3.65,3.7c1.39,0,2.22-0.24,2.95-0.55l0.33,1.39
					c-0.68,0.31-1.85,0.66-3.54,0.66c-3.28,0-5.24-2.16-5.24-5.37c0-3.21,1.89-5.74,5-5.74c3.48,0,4.4,3.06,4.4,5.02
					c0,0.4-0.04,0.7-0.07,0.9H72.3z M77.97,110.1c0.02-1.23-0.51-3.15-2.68-3.15c-1.96,0-2.82,1.8-2.97,3.15H77.97z"/>
				<path class="st2" d="M83.01,105.81l1.41,5.41c0.31,1.19,0.59,2.29,0.79,3.39h0.07c0.24-1.08,0.59-2.22,0.95-3.37l1.74-5.43h1.63
					l1.65,5.32c0.4,1.28,0.7,2.4,0.95,3.48h0.07c0.18-1.08,0.46-2.2,0.81-3.45l1.52-5.35h1.91l-3.43,10.65h-1.76l-1.63-5.08
					c-0.37-1.19-0.68-2.24-0.95-3.5h-0.04c-0.26,1.28-0.59,2.38-0.97,3.52L86,116.46h-1.76l-3.21-10.65H83.01z"/>
				<path class="st2" d="M98.04,114.48c0.57,0.37,1.58,0.77,2.55,0.77c1.41,0,2.07-0.7,2.07-1.58c0-0.92-0.55-1.43-1.98-1.96
					c-1.91-0.68-2.82-1.74-2.82-3.01c0-1.72,1.39-3.12,3.67-3.12c1.08,0,2.02,0.31,2.62,0.66l-0.48,1.41
					c-0.42-0.26-1.19-0.62-2.18-0.62c-1.14,0-1.78,0.66-1.78,1.45c0,0.88,0.64,1.28,2.02,1.8c1.85,0.7,2.79,1.63,2.79,3.21
					c0,1.87-1.45,3.19-3.98,3.19c-1.17,0-2.24-0.29-2.99-0.73L98.04,114.48z"/>
			</g>
			<path id="_x23_" class="st6" d="M28.89,117.66c-0.31,0-0.55-0.28-0.49-0.59l0.61-3.41h-3.4c-0.31,0-0.55-0.28-0.49-0.59l0.17-1
				c0.04-0.24,0.25-0.41,0.49-0.41h3.58l1.06-6H27c-0.31,0-0.55-0.28-0.49-0.59l0.17-1c0.04-0.24,0.25-0.41,0.49-0.41h3.58
				l0.64-3.59c0.04-0.24,0.25-0.41,0.49-0.41h0.98c0.31,0,0.55,0.28,0.49,0.59l-0.61,3.41h6l0.64-3.59
				c0.04-0.24,0.25-0.41,0.49-0.41h0.98c0.31,0,0.55,0.28,0.49,0.59l-0.61,3.41h3.4c0.31,0,0.55,0.28,0.49,0.59l-0.17,1
				c-0.04,0.24-0.25,0.41-0.49,0.41h-3.58l-1.06,6h3.4c0.31,0,0.55,0.28,0.49,0.59l-0.17,1c-0.04,0.24-0.25,0.41-0.49,0.41H39
				l-0.64,3.59c-0.04,0.24-0.25,0.41-0.49,0.41h-0.98c-0.31,0-0.55-0.28-0.49-0.59l0.61-3.41h-6l-0.64,3.59
				c-0.04,0.24-0.25,0.41-0.49,0.41H28.89z M32.41,105.66l-1.06,6h6l1.06-6H32.41z"/>
		</g>
	</g>
	<path class="st6" d="M35.38,200.08c-0.37-0.15-0.8-0.07-1.09,0.22L30,205h-3c-0.55,0-1,0.45-1,1v6c0,0.55,0.45,1,1,1h3l4.29,4.71
		c0.29,0.29,0.72,0.37,1.09,0.22S36,217.41,36,217v-16C36,200.6,35.76,200.23,35.38,200.08z M38,202v2c2.76,0,5,2.24,5,5
		c0,2.76-2.24,5-5,5v2c3.86,0,7-3.14,7-7C45,205.14,41.86,202,38,202z M38,206c1.65,0,3,1.35,3,3c0,1.65-1.35,3-3,3v-2
		c0.55,0,1-0.45,1-1s-0.45-1-1-1V206z M38,206"/>
</g>
<g id="Top_bar">
	<path class="st7" d="M1920,75H0V25C0,11.19,11.19,0,25,0h1870c13.81,0,25,11.19,25,25V75z"/>
</g>
<g id="Buttons">
	<circle class="st8" cx="37.5" cy="37.5" r="12.5"/>
	<circle class="st9" cx="77.5" cy="36.5" r="12.5"/>
	<circle class="st10" cx="117.5" cy="36.5" r="12.5"/>
	<g>
	</g>
	<g>
	</g>
	<g>
	</g>
	<g>
	</g>
	<g>
	</g>
	<g>
	</g>
	<g>
	</g>
	<g>
	</g>
	<g>
	</g>
	<g>
	</g>
	<g>
	</g>
</g>
</svg>
